{
  "accessors": [
    {
      "bufferView": 2,
      "componentType": 5126,
      "count": 8286,
      "max": [
        100.57371520996094,
        102.86971282958984,
        100.11407470703125
      ],
      "min": [
        -102.56242370605469,
        -101.8654556274414,
        -100.81053924560547
      ],
      "type": "VEC3"
    },
    {
      "bufferView": 2,
      "byteOffset": 99432,
      "componentType": 5126,
      "count": 8286,
      "max": [
        0.9999696016311646,
        0.9998819828033447,
        0.9995059370994568
      ],
      "min": [
        -0.999466061592102,
        -0.9998651742935181,
        -0.9984274506568909
      ],
      "type": "VEC3"
    },
    {
      "bufferView": 3,
      "componentType": 5126,
      "count": 8286,
      "max": [
        0.9999915361404419,
        0.9999991655349731,
        0.33040523529052734,
        1.0
      ],
      "min": [
        -0.9999985098838806,
        -0.9999971985816956,
        -0.43103471398353577,
        -1.0
      ],
      "type": "VEC4"
    },
    {
      "bufferView": 1,
      "componentType": 5126,
      "count": 8286,
      "max": [
        0.9999816417694092,
        0.9958981275558472
      ],
      "min": [
        -0.15067660808563232,
        0.006994277238845825
      ],
      "type": "VEC2"
    },
    {
      "bufferView": 0,
      "componentType": 5125,
      "count": 49212,
      "type": "SCALAR"
    }
  ],
  "asset": {
    "extras": {
      "author": "SebastianSosnowski (https://sketchfab.com/SebastianSosnowski)",
      "license": "CC-BY-4.0 (http://creativecommons.org/licenses/by/4.0/)",
      "source": "https://sketchfab.com/3d-models/mercury-planet-brass-stylised-bbb89fb4f48e4b7287c44cdcb8ea17a5",
      "title": "Mercury planet (brass stylised)"
    },
    "generator": "Sketchfab-12.67.0",
    "version": "2.0"
  },
  "bufferViews": [
    {
      "buffer": 0,
      "byteLength": 196848,
      "name": "floatBufferViews",
      "target": 34963
    },
    {
      "buffer": 0,
      "byteLength": 66288,
      "byteOffset": 196848,
      "byteStride": 8,
      "name": "floatBufferViews",
      "target": 34962
    },
    {
      "buffer": 0,
      "byteLength": 198864,
      "byteOffset": 263136,
      "byteStride": 12,
      "name": "floatBufferViews",
      "target": 34962
    },
    {
      "buffer": 0,
      "byteLength": 132576,
      "byteOffset": 462000,
      "byteStride": 16,
      "name": "floatBufferViews",
      "target": 34962
    }
  ],
  "buffers": [
    {
      "byteLength": 594576,
      "uri": "scene.bin"
    }
  ],
  "images": [
    {
      "uri": "textures/Material_2_baseColor.jpeg"
    },
    {
      "uri": "textures/Material_2_metallicRoughness.png"
    },
    {
      "uri": "textures/Material_2_normal.png"
    }
  ],
  "materials": [
    {
      "name": "Material_2",
      "normalTexture": {
        "index": 2
      },
      "pbrMetallicRoughness": {
        "baseColorTexture": {
          "index": 0
        },
        "metallicRoughnessTexture": {
          "index": 1
        },
        "roughnessFactor": 0.6887696161586683
      }
    }
  ],
  "meshes": [
    {
      "name": "Mercury_ZB_LP_Material #2_0",
      "primitives": [
        {
          "attributes": {
            "NORMAL": 1,
            "POSITION": 0,
            "TANGENT": 2,
            "TEXCOORD_0": 3
          },
          "indices": 4,
          "material": 0,
          "mode": 4
        }
      ]
    }
  ],
  "nodes": [
    {
      "children": [
        1
      ],
      "matrix": [
        0.0037238795775920153,
        0.0,
        0.0,
        0.0,
        0.0,
        8.268673695948115e-19,
        -0.0037238795775920153,
        0.0,
        0.0,
        0.0037238795775920153,
        8.268673695948115e-19,
        0.0,
        0.0,
        0.0,
        0.0,
        1.0
      ],
      "name": "Sketchfab_model"
    },
    {
      "children": [
        2
      ],
      "matrix": [
        1.0,
        0.0,
        0.0,
        0.0,
        0.0,
        0.0,
        1.0,
        0.0,
        0.0,
        -1.0,
        0.0,
        0.0,
        0.0,
        0.0,
        0.0,
        1.0
      ],
      "name": "ab8d2b71995747c0a227f991b069a7ff.fbx"
    },
    {
      "children": [
        3
      ],
      "name": "RootNode"
    },
    {
      "children": [
        4
      ],
      "matrix": [
        1.0,
        0.0,
        0.0,
        0.0,
        0.0,
        2.220446049250313e-16,
        -1.0,
        0.0,
        0.0,
        1.0,
        2.220446049250313e-16,
        0.0,
        0.0,
        0.0,
        0.0,
        1.0
      ],
      "name": "Mercury_ZB_LP"
    },
    {
      "mesh": 0,
      "name": "Mercury_ZB_LP_Material #2_0"
    }
  ],
  "samplers": [
    {
      "magFilter": 9729,
      "minFilter": 9987,
      "wrapS": 10497,
      "wrapT": 10497
    }
  ],
  "scene": 0,
  "scenes": [
    {
      "name": "Sketchfab_Scene",
      "nodes": [
        0
      ]
    }
  ],
  "textures": [
    {
      "sampler": 0,
      "source": 0
    },
    {
      "sampler": 0,
      "source": 1
    },
    {
      "sampler": 0,
      "source": 2
    }
  ]
}
